<svg width="240" height="240" viewBox="0 0 240 240" fill="none" xmlns="http://www.w3.org/2000/svg">
<g clip-path="url(#clip0_41_13)">
<path d="M227.182 131.069C220.11 131.069 214.364 136.811 214.368 143.883V196.244L167.043 148.919L192.683 123.278C197.686 118.276 197.686 110.157 192.683 105.154C187.681 100.152 179.562 100.152 174.559 105.154L148.919 130.795L129.889 111.765C149.089 84.0012 146.359 45.5427 121.658 20.8455C93.8652 -6.94713 48.6383 -6.94713 20.8456 20.8455C-6.94707 48.6382 -6.94707 93.8652 20.8456 121.658C45.547 146.359 84.0013 149.089 111.765 129.889L130.795 148.919L105.154 174.559C100.152 179.562 100.152 187.68 105.154 192.683C110.157 197.686 118.276 197.686 123.278 192.683L148.919 167.043L196.244 214.368H143.883C140.347 214.368 137.139 215.801 134.821 218.12C132.502 220.438 131.065 223.646 131.069 227.182C131.069 234.262 136.807 240 143.887 240H227.186C234.258 240.004 240.004 234.258 240 227.186V143.883C240 136.807 234.262 131.069 227.182 131.069ZM38.9696 103.538C21.1697 85.738 21.1697 56.7737 38.9696 38.9696C56.7696 21.1696 85.7339 21.1696 103.538 38.9696C121.338 56.7695 121.338 85.7339 103.538 103.538C85.7339 121.338 56.7696 121.338 38.9696 103.538Z" fill="#FF1ACD"/>
</g>
<defs>
<clipPath id="clip0_41_13">
<rect width="240" height="240" fill="white"/>
</clipPath>
</defs>
</svg>
