<svg width="256" height="256" viewBox="0 0 256 256" fill="none" xmlns="http://www.w3.org/2000/svg">
<g clip-path="url(#clip0_41_17)">
<path d="M161.471 116.301L249.259 28.2591C266.015 8.41937 247.343 0.759303 238.547 0.764468H134.994C126.192 0.764468 119.059 7.89767 119.059 16.6993C119.054 25.4905 126.197 32.634 134.989 32.6289H200.081L138.94 93.7699C104.426 69.9013 56.6163 73.2949 25.9141 104.002C-8.63624 138.553 -8.63624 194.776 25.9141 229.327C60.4644 263.877 116.688 263.877 151.239 229.327C181.946 198.619 185.339 150.815 161.471 116.301ZM48.4449 206.796C26.317 184.668 26.317 148.661 48.4449 126.528C70.5728 104.395 106.58 104.4 128.713 126.528C150.846 148.656 150.841 184.663 128.713 206.796C106.585 228.929 70.5728 228.924 48.4449 206.796Z" fill="#359EFF"/>
</g>
<defs>
<clipPath id="clip0_41_17">
<rect width="256" height="256" fill="white"/>
</clipPath>
</defs>
</svg>
